<?xml version="1.0" ?><svg data-name="Layer 1" id="Layer_1" viewBox="0 0 512 512" xmlns="http://www.w3.org/2000/svg"><defs><style>.cls-1{fill:none;stroke:#323232;stroke-linecap:round;stroke-linejoin:round;stroke-width:14px;}</style></defs><title/><path class="cls-1" d="M151.11,238.18h153a0,0,0,0,1,0,0V314.7a76.51,76.51,0,0,1-76.51,76.51h0a76.51,76.51,0,0,1-76.51-76.51V238.18A0,0,0,0,1,151.11,238.18Z"/><path class="cls-1" d="M304.14,263.69h71V303.8a36.39,36.39,0,0,1-36.39,36.4H304.14"/><path class="cls-1" d="M193.7,120.79a71.45,71.45,0,0,1,.59,9.17c0,11.85-2.91,23.68-8.69,30.76-7.74,9.43-10.31,27.33-7.72,42.41"/><path class="cls-1" d="M236,120.79a71.45,71.45,0,0,1,.59,9.17c0,11.85-2.91,23.68-8.7,30.76-7.73,9.43-10.3,27.33-7.72,42.41"/><path class="cls-1" d="M278.33,120.79a71.45,71.45,0,0,1,.59,9.17c0,11.85-2.91,23.68-8.7,30.76-7.73,9.43-10.3,27.33-7.71,42.41"/></svg>